<svg xmlns="http://www.w3.org/2000/svg" viewBox="0 0 138 138">
	<rect width="138" height="138" fill="#100F0D"/>
	<rect x="0" y="0" width="3" height="138" fill="#3E3833"/>
	<rect x="3" y="0" width="3" height="138" fill="#3E3833"/>
	<rect x="9" y="0" width="3" height="138" fill="#3E3833"/>
	<rect x="18" y="0" width="3" height="138" fill="#3E3833"/>
	<rect x="33" y="0" width="3" height="138" fill="#DB5836"/>
	<rect x="45" y="0" width="3" height="138" fill="#3E3833"/>
	<rect x="51" y="0" width="3" height="138" fill="#3E3833"/>
	<rect x="54" y="0" width="3" height="138" fill="#3E3833"/>
	<rect x="66" y="0" width="3" height="138" fill="#3E3833"/>
	<rect x="78" y="0" width="3" height="138" fill="#3E3833"/>
	<rect x="90" y="0" width="3" height="138" fill="#3E3833"/>
	<rect x="93" y="0" width="3" height="138" fill="#3E3833"/>
	<rect x="99" y="0" width="3" height="138" fill="#3E3833"/>
	<rect x="102" y="0" width="3" height="138" fill="#3E3833"/>
	<rect x="114" y="0" width="3" height="138" fill="#3E3833"/>
	<rect x="117" y="0" width="3" height="138" fill="#3E3833"/>
	<rect x="120" y="0" width="3" height="138" fill="#3E3833"/>
	<rect x="126" y="0" width="3" height="138" fill="#3E3833"/>
	<rect x="132" y="0" width="3" height="138" fill="#3E3833"/>
	<rect x="135" y="0" width="3" height="138" fill="#3E3833"/>
</svg>
